<?xml version="1.0" encoding="UTF-8"?>
<svg width="102px" height="36px" viewBox="0 0 102 36" version="1.1" xmlns="http://www.w3.org/2000/svg" xmlns:xlink="http://www.w3.org/1999/xlink">
    <!-- Generator: Sketch 52.2 (67145) - http://www.bohemiancoding.com/sketch -->
    <title>Enterprise</title>
    <desc>Created with Sketch.</desc>
    <defs>
        <path d="M2,0 L80.5348657,-2.15383267e-14 C80.8297842,-2.15925023e-14 81.1096638,0.130181608 81.2996691,0.35573635 L89.926154,10.5962109 C90.5482016,11.3346418 90.5538992,12.4120473 89.9396963,13.1570159 L81.299992,23.6361388 C81.110029,23.8665454 80.8270361,24 80.5284174,24 L2,24 C0.8954305,24 -9.93407123e-14,23.1045695 -9.9475983e-14,22 L-9.9475983e-14,2 C-9.96112538e-14,0.8954305 0.8954305,2.02906125e-16 2,0 Z" id="path-1"></path>
        <filter x="-9.9%" y="-37.5%" width="119.1%" height="175.0%" filterUnits="objectBoundingBox" id="filter-2">
            <feOffset dx="0" dy="0" in="SourceAlpha" result="shadowOffsetOuter1"></feOffset>
            <feGaussianBlur stdDeviation="3" in="shadowOffsetOuter1" result="shadowBlurOuter1"></feGaussianBlur>
            <feColorMatrix values="0 0 0 0 0.140006168   0 0 0 0 0.245125714   0 0 0 0 0.433673469  0 0 0 1 0" type="matrix" in="shadowBlurOuter1"></feColorMatrix>
        </filter>
    </defs>
    <g id="Page-1" stroke="none" stroke-width="1" fill="none" fill-rule="evenodd">
        <g id="log-in" transform="translate(-1123.000000, -7.000000)">
            <g id="Enterprise" transform="translate(1129.000000, 13.000000)">
                <g id="矩形" fill-rule="nonzero">
                    <use fill="black" fill-opacity="1" filter="url(#filter-2)" xlink:href="#path-1"></use>
                    <use fill="#4988F9" xlink:href="#path-1"></use>
                </g>
                <g id="分组-6" transform="translate(64.000000, 6.000000)" fill="#FFFFFF" fill-rule="nonzero">
                    <path d="M7.02164069,13 C10.6114916,13 13.5216407,10.0898509 13.5216407,6.5 C13.5216407,2.91014913 10.6114916,0 7.02164069,0 C3.43178981,0 0.521640686,2.91014913 0.521640686,6.5 C0.521640686,10.0898509 3.43178981,13 7.02164069,13 Z" id="椭圆形" fill-opacity="0.15"></path>
                    <g id="分组-5" transform="translate(3.000000, 3.000000)">
                        <g id="分组-4">
                            <polygon id="矩形" transform="translate(2.620125, 2.282602) rotate(44.000000) translate(-2.620125, -2.282602) " points="0.275108467 1.69873781 5.02744079 1.78812325 4.9651411 2.86646718 0.212808779 2.77708174"></polygon>
                            <polygon id="矩形" transform="translate(2.620125, 4.921968) scale(1, -1) rotate(44.000000) translate(-2.620125, -4.921968) " points="0.275108467 4.33810352 5.02744079 4.42748896 4.9651411 5.50583289 0.212808779 5.41644745"></polygon>
                        </g>
                        <g id="分组-4-copy" transform="translate(3.069671, 0.000000)">
                            <polygon id="矩形" transform="translate(2.620125, 2.282602) rotate(44.000000) translate(-2.620125, -2.282602) " points="0.275108467 1.69873781 5.02744079 1.78812325 4.9651411 2.86646718 0.212808779 2.77708174"></polygon>
                            <polygon id="矩形" transform="translate(2.620125, 4.921968) scale(1, -1) rotate(44.000000) translate(-2.620125, -4.921968) " points="0.275108467 4.33810352 5.02744079 4.42748896 4.9651411 5.50583289 0.212808779 5.41644745"></polygon>
                        </g>
                    </g>
                </g>
                <text font-family="ArialMT, Arial" font-size="12" font-weight="normal" fill="#FFFFFF">
                    <tspan x="6" y="16">Enterprise</tspan>
                </text>
            </g>
        </g>
    </g>
</svg>